<svg width="48" height="48" viewBox="594 103 68 68" fill="none" xmlns="http://www.w3.org/2000/svg">
  <path d="M626.578 151L639.375 143.3V123H616.625V151H626.578ZM639.375 143.3H626.578V151" stroke="currentColor" stroke-width="2.625" stroke-linejoin="round"></path>
  <path d="M623.892 130.446C624.177 130.145 624.651 130.133 624.952 130.418C625.253 130.702 625.266 131.177 624.981 131.478L621.906 134.724L624.981 137.969C625.266 138.27 625.253 138.745 624.952 139.03C624.652 139.314 624.176 139.301 623.892 139.001L620.328 135.239C620.055 134.95 620.055 134.497 620.328 134.208L623.892 130.446ZM631.048 130.417C631.349 130.132 631.824 130.145 632.108 130.446L635.672 134.208C635.946 134.497 635.946 134.95 635.672 135.239L632.108 139.001C631.824 139.301 631.349 139.314 631.048 139.029C630.747 138.744 630.734 138.269 631.019 137.968L634.093 134.722L631.019 131.477C630.734 131.176 630.747 130.701 631.048 130.417Z" fill="currentColor"></path>
  <line x1="0.75" y1="-0.75" x2="6.27143" y2="-0.75" transform="matrix(0.38375 -0.923437 0.809762 0.586758 626.997 138.485)" stroke="currentColor" stroke-opacity="0.6" stroke-width="1.5" stroke-linecap="round"></line>
</svg>